<svg width="144" height="22" viewBox="0 0 144 22" fill="none" xmlns="http://www.w3.org/2000/svg">
<g clip-path="url(#clip0_13_197)">
<path d="M17.7619 21.7609H14.9932L20.0341 6.80433H23.2362L28.2842 21.7609H25.5155L21.6911 9.87159H21.5793L17.7619 21.7609ZM17.8527 15.8966H25.4037V18.0729H17.8527V15.8966ZM37.7211 10.9159C37.6559 10.2781 37.3809 9.78153 36.8963 9.42611C36.416 9.07072 35.7914 8.89299 35.0224 8.89299C34.4817 8.89299 34.0179 8.9782 33.631 9.1486C33.2443 9.31901 32.9483 9.55027 32.7432 9.84239C32.538 10.1345 32.4332 10.468 32.4286 10.8429C32.4286 11.1545 32.4961 11.4247 32.6312 11.6535C32.7711 11.8824 32.96 12.0771 33.1976 12.2378C33.4352 12.3936 33.6987 12.525 33.9877 12.6321C34.2766 12.7392 34.568 12.8293 34.8615 12.9024L36.204 13.2529C36.7447 13.3843 37.2644 13.562 37.763 13.786C38.2664 14.01 38.7163 14.2923 39.1126 14.6332C39.5135 14.974 39.8303 15.3854 40.0634 15.8674C40.2964 16.3493 40.4129 16.9141 40.4129 17.5616C40.4129 18.438 40.1984 19.2097 39.7696 19.8767C39.3408 20.5388 38.7209 21.0573 37.91 21.4322C37.1037 21.8023 36.127 21.9873 34.9805 21.9873C33.8665 21.9873 32.8993 21.8071 32.079 21.4468C31.2633 21.0866 30.6246 20.5607 30.1633 19.8694C29.7063 19.178 29.4593 18.3358 29.422 17.3425H31.9742C32.0113 17.8635 32.1651 18.2968 32.4355 18.6425C32.7058 18.9882 33.0577 19.2462 33.4913 19.4166C33.9293 19.587 34.4187 19.6722 34.9595 19.6722C35.5236 19.6722 36.0176 19.5846 36.4416 19.4093C36.8706 19.2292 37.206 18.9809 37.4485 18.6644C37.6909 18.3431 37.8143 17.9682 37.8191 17.5397C37.8143 17.1502 37.7049 16.8289 37.4904 16.5758C37.2761 16.3177 36.9755 16.1035 36.5886 15.9331C36.2063 15.7578 35.7589 15.602 35.2461 15.4657L33.617 15.0275C32.4378 14.711 31.5055 14.2315 30.8203 13.5888C30.1399 12.9413 29.7998 12.082 29.7998 11.0109C29.7998 10.1296 30.028 9.35796 30.485 8.69581C30.9463 8.03368 31.5733 7.52003 32.3657 7.1549C33.158 6.78487 34.0552 6.59985 35.0575 6.59985C36.0735 6.59985 36.9638 6.78487 37.7282 7.1549C38.4972 7.52003 39.1009 8.0288 39.5391 8.68122C39.977 9.32874 40.2032 10.0737 40.2172 10.9159H37.7211ZM42.7254 21.7609V6.80433H45.3192V13.6765H45.4941L51.0804 6.80433H54.2477L48.7102 13.5158L54.2965 21.7609H51.1784L46.9064 15.3488L45.3192 17.306V21.7609H42.7254ZM56.0496 6.80433H59.2238L63.4747 17.642H63.6425L67.8936 6.80433H71.0678V21.7609H68.5786V11.4856H68.4458L64.4886 21.7171H62.6288L58.6716 11.4636H58.5386V21.7609H56.0496V6.80433ZM75.7312 21.7609H72.9624L78.0033 6.80433H81.2055L86.2535 21.7609H83.4847L79.6604 9.87159H79.5484L75.7312 21.7609ZM75.8221 15.8966H83.373V18.0729H75.8221V15.8966ZM95.6904 10.9159C95.6251 10.2781 95.3502 9.78153 94.8653 9.42611C94.3852 9.07072 93.7607 8.89299 92.9917 8.89299C92.451 8.89299 91.9871 8.9782 91.6002 9.1486C91.2133 9.31901 90.9175 9.55027 90.7124 9.84239C90.5073 10.1345 90.4025 10.468 90.3976 10.8429C90.3976 11.1545 90.4654 11.4247 90.6005 11.6535C90.7404 11.8824 90.9292 12.0771 91.1669 12.2378C91.4045 12.3936 91.668 12.525 91.9569 12.6321C92.2458 12.7392 92.5373 12.8293 92.8308 12.9024L94.1732 13.2529C94.714 13.3843 95.2337 13.562 95.7323 13.786C96.2357 14.01 96.6856 14.2923 97.0818 14.6332C97.4825 14.974 97.7996 15.3854 98.0326 15.8674C98.2657 16.3493 98.3822 16.9141 98.3822 17.5616C98.3822 18.438 98.1677 19.2097 97.7389 19.8767C97.3101 20.5388 96.6901 21.0573 95.8793 21.4322C95.0727 21.8023 94.0963 21.9873 92.9498 21.9873C91.8356 21.9873 90.8686 21.8071 90.0481 21.4468C89.2326 21.0866 88.5939 20.5607 88.1326 19.8694C87.6756 19.178 87.4286 18.3358 87.3913 17.3425H89.9432C89.9805 17.8635 90.1344 18.2968 90.4047 18.6425C90.6751 18.9882 91.027 19.2462 91.4606 19.4166C91.8985 19.587 92.388 19.6722 92.9287 19.6722C93.4926 19.6722 93.9869 19.5846 94.4109 19.4093C94.8397 19.2292 95.1753 18.9809 95.4177 18.6644C95.6602 18.3431 95.7836 17.9682 95.7884 17.5397C95.7836 17.1502 95.6741 16.8289 95.4596 16.5758C95.2453 16.3177 94.9447 16.1035 94.5578 15.9331C94.1755 15.7578 93.7282 15.602 93.2154 15.4657L91.5863 15.0275C90.407 14.711 89.4748 14.2315 88.7896 13.5888C88.1092 12.9413 87.769 12.082 87.769 11.0109C87.769 10.1296 87.9973 9.35796 88.454 8.69581C88.9155 8.03368 89.5423 7.52003 90.3349 7.1549C91.1273 6.78487 92.0245 6.59985 93.0265 6.59985C94.0427 6.59985 94.9331 6.78487 95.6975 7.1549C96.4665 7.52003 97.0702 8.0288 97.5081 8.68122C97.9463 9.32874 98.1725 10.0737 98.1865 10.9159H95.6904ZM100.065 9.07557V6.80433H111.49V9.07557H107.064V21.7609H104.491V9.07557H100.065ZM113.692 21.7609V6.80433H123.005V9.07557H116.286V13.136H122.522V15.4073H116.286V19.4896H123.061V21.7609H113.692ZM125.651 21.7609V6.80433H131.021C132.121 6.80433 133.044 7.00396 133.789 7.40319C134.54 7.80242 135.106 8.36232 135.488 9.08289C135.875 9.79858 136.069 10.6336 136.069 11.5878C136.069 12.5469 135.873 13.3795 135.482 14.0854C135.095 14.7865 134.524 15.3294 133.768 15.714C133.013 16.0937 132.086 16.2836 130.986 16.2836H127.161V14.0343H130.636C131.279 14.0343 131.806 13.9418 132.216 13.7568C132.626 13.5669 132.93 13.2918 133.125 12.9315C133.326 12.5664 133.426 12.1185 133.426 11.5878C133.426 11.0571 133.326 10.6043 133.125 10.2294C132.925 9.84968 132.62 9.56244 132.209 9.36769C131.799 9.16809 131.27 9.06828 130.622 9.06828H128.245V21.7609H125.651ZM133.048 14.9837L136.593 21.7609H133.699L130.217 14.9837H133.048Z" fill="#F4F4F5"/>
<path d="M135.758 1.67392H0.228943V6.67572e-06H135.758V1.67392Z" fill="#F4F4F5"/>
<path d="M10.9889 4.06522H19.4595L14.3522 6.37335L10.9889 21.7609V4.06522Z" fill="#F4F4F5"/>
<path d="M8.47059 4.06522H0L5.10726 6.37335L8.47059 21.7609V4.06522Z" fill="#F4F4F5"/>
</g>
<defs>
<clipPath id="clip0_13_197">
<rect width="144" height="22" fill="white"/>
</clipPath>
</defs>
</svg>
